<svg width="213" height="102" viewBox="0 0 213 102" fill="none" xmlns="http://www.w3.org/2000/svg">
<g filter="url(#filter0_d_96_107)">
<ellipse cx="106.5" cy="44.1667" rx="97.5" ry="35.7" fill="#7CEDF7"/>
<path d="M106.5 5.96667C133.639 5.96667 158.318 9.98996 176.303 16.5751C185.285 19.8639 192.729 23.8401 197.975 28.3807C203.213 32.9154 206.5 38.2421 206.5 44.1669C206.5 50.0916 203.213 55.4184 197.975 59.953C192.73 64.4936 185.285 68.4688 176.303 71.7577C158.318 78.3428 133.639 82.3671 106.5 82.3671C79.3614 82.3671 54.6818 78.3428 36.6973 71.7577C27.7152 68.4688 20.2705 64.4936 15.0254 59.953C9.78726 55.4184 6.50007 50.0916 6.5 44.1669C6.5 38.2421 9.78732 32.9154 15.0254 28.3807C20.2705 23.8401 27.7151 19.8639 36.6973 16.5751C54.6818 9.98996 79.3614 5.96667 106.5 5.96667Z" stroke="#2C1E88" stroke-width="5"/>
</g>
<g filter="url(#filter1_i_96_107)">
<path d="M50 29.9091H55.8182V35.7273H50V29.9091ZM50 35.7273H55.8182V41.5455H50V35.7273ZM50 41.5455H55.8182V47.3636H50V41.5455ZM50 47.3636H55.8182V53.1818H50V47.3636ZM55.8182 53.1818H61.6364V59H55.8182V53.1818ZM61.6364 47.3636H67.4545V53.1818H61.6364V47.3636ZM61.6364 41.5455H67.4545V47.3636H61.6364V41.5455ZM61.6364 35.7273H67.4545V41.5455H61.6364V35.7273ZM61.6364 29.9091H67.4545V35.7273H61.6364V29.9091ZM73.25 29.9091H79.0682V35.7273H73.25V29.9091ZM73.25 35.7273H79.0682V41.5455H73.25V35.7273ZM73.25 41.5455H79.0682V47.3636H73.25V41.5455ZM73.25 47.3636H79.0682V53.1818H73.25V47.3636ZM73.25 53.1818H79.0682V59H73.25V53.1818ZM96.5114 29.9091H102.33V35.7273H96.5114V29.9091ZM90.6932 29.9091H96.5114V35.7273H90.6932V29.9091ZM84.875 35.7273H90.6932V41.5455H84.875V35.7273ZM84.875 41.5455H90.6932V47.3636H84.875V41.5455ZM90.6932 41.5455H96.5114V47.3636H90.6932V41.5455ZM96.5114 41.5455H102.33V47.3636H96.5114V41.5455ZM96.5114 47.3636H102.33V53.1818H96.5114V47.3636ZM96.5114 53.1818H102.33V59H96.5114V53.1818ZM90.6932 53.1818H96.5114V59H90.6932V53.1818ZM84.875 53.1818H90.6932V59H84.875V53.1818ZM84.875 29.9091H90.6932V35.7273H84.875V29.9091ZM108.125 29.9091H113.943V35.7273H108.125V29.9091ZM108.125 35.7273H113.943V41.5455H108.125V35.7273ZM108.125 41.5455H113.943V47.3636H108.125V41.5455ZM108.125 47.3636H113.943V53.1818H108.125V47.3636ZM108.125 53.1818H113.943V59H108.125V53.1818ZM119.75 29.9091H125.568V35.7273H119.75V29.9091ZM125.568 29.9091H131.386V35.7273H125.568V29.9091ZM131.386 29.9091H137.205V35.7273H131.386V29.9091ZM131.386 35.7273H137.205V41.5455H131.386V35.7273ZM131.386 41.5455H137.205V47.3636H131.386V41.5455ZM131.386 47.3636H137.205V53.1818H131.386V47.3636ZM131.386 53.1818H137.205V59H131.386V53.1818ZM125.568 53.1818H131.386V59H125.568V53.1818ZM119.75 53.1818H125.568V59H119.75V53.1818ZM119.75 47.3636H125.568V53.1818H119.75V47.3636ZM119.75 41.5455H125.568V47.3636H119.75V41.5455ZM119.75 35.7273H125.568V41.5455H119.75V35.7273ZM143 53.1818H148.818V59H143V53.1818ZM143 47.3636H148.818V53.1818H143V47.3636ZM143 41.5455H148.818V47.3636H143V41.5455ZM143 35.7273H148.818V41.5455H143V35.7273ZM148.818 29.9091H154.636V35.7273H148.818V29.9091ZM154.636 35.7273H160.455V41.5455H154.636V35.7273ZM154.636 41.5455H160.455V47.3636H154.636V41.5455ZM154.636 47.3636H160.455V53.1818H154.636V47.3636ZM154.636 53.1818H160.455V59H154.636V53.1818ZM143 29.9091H148.818V35.7273H143V29.9091Z" fill="#2C1E88"/>
</g>
<defs>
<filter id="filter0_d_96_107" x="0" y="3.46667" width="213" height="89.4" filterUnits="userSpaceOnUse" color-interpolation-filters="sRGB">
<feFlood flood-opacity="0" result="BackgroundImageFix"/>
<feColorMatrix in="SourceAlpha" type="matrix" values="0 0 0 0 0 0 0 0 0 0 0 0 0 0 0 0 0 0 127 0" result="hardAlpha"/>
<feOffset dy="4"/>
<feGaussianBlur stdDeviation="2"/>
<feComposite in2="hardAlpha" operator="out"/>
<feColorMatrix type="matrix" values="0 0 0 0 0 0 0 0 0 0 0 0 0 0 0 0 0 0 0.25 0"/>
<feBlend mode="normal" in2="BackgroundImageFix" result="effect1_dropShadow_96_107"/>
<feBlend mode="normal" in="SourceGraphic" in2="effect1_dropShadow_96_107" result="shape"/>
</filter>
<filter id="filter1_i_96_107" x="50" y="29.9091" width="110.455" height="33.0909" filterUnits="userSpaceOnUse" color-interpolation-filters="sRGB">
<feFlood flood-opacity="0" result="BackgroundImageFix"/>
<feBlend mode="normal" in="SourceGraphic" in2="BackgroundImageFix" result="shape"/>
<feColorMatrix in="SourceAlpha" type="matrix" values="0 0 0 0 0 0 0 0 0 0 0 0 0 0 0 0 0 0 127 0" result="hardAlpha"/>
<feOffset dy="4"/>
<feGaussianBlur stdDeviation="2"/>
<feComposite in2="hardAlpha" operator="arithmetic" k2="-1" k3="1"/>
<feColorMatrix type="matrix" values="0 0 0 0 0 0 0 0 0 0 0 0 0 0 0 0 0 0 0.25 0"/>
<feBlend mode="normal" in2="shape" result="effect1_innerShadow_96_107"/>
</filter>
</defs>
</svg>
