<svg width="288" height="79" viewBox="0 0 288 79" fill="none" xmlns="http://www.w3.org/2000/svg">
<g filter="url(#filter0_d_66_179)">
<mask id="path-1-inside-1_66_179" fill="white">
<rect x="4" width="280" height="71" rx="4"/>
</mask>
<rect x="4" width="280" height="71" rx="4" fill="#FEF9F3" fill-opacity="0.53" shape-rendering="crispEdges"/>
<rect x="4" width="280" height="71" rx="4" stroke="#F41127" stroke-width="16" shape-rendering="crispEdges" mask="url(#path-1-inside-1_66_179)"/>
</g>
<g filter="url(#filter1_d_66_179)">
<path d="M44.032 33.424H35.2V34.224H42.304V39.152H35.2V39.952H44.032V45.264H28.48V28.112H44.032V33.424ZM65.588 36.528L70.676 45.264H63.38L59.7 38.96V45.264H52.98V28.112H59.7V34.064L63.188 28.112H70.484L65.588 36.528ZM95.7643 33.424H86.7403V34.224H90.8043C93.8443 34.224 96.3403 36.688 96.3403 39.728C96.3403 42.8 93.8443 45.264 90.8043 45.264H80.0203V39.952H89.2043V39.152H85.1723C82.1003 39.152 79.6363 36.688 79.6363 33.616C79.6363 30.576 82.1003 28.112 85.1723 28.112H95.7643V33.424ZM105.293 36.688C105.293 31.728 109.293 27.728 114.253 27.728C119.213 27.728 123.213 31.728 123.213 36.688C123.213 41.648 119.213 45.648 114.253 45.648C109.293 45.648 105.293 41.648 105.293 36.688ZM114.253 38.928C115.501 38.928 116.493 37.904 116.493 36.688C116.493 35.44 115.501 34.448 114.253 34.448C113.005 34.448 112.013 35.44 112.013 36.688C112.013 37.904 113.005 38.928 114.253 38.928ZM132.168 28.08H148.104V33.424H143.496V45.264H136.776V33.424H132.168V28.08ZM172.626 33.424H163.794V34.224H170.898V39.152H163.794V39.952H172.626V45.264H157.074V28.112H172.626V33.424ZM192.102 45.264L189.83 41.424H188.294V45.264H181.574V28.08H191.59C195.27 28.08 198.278 31.088 198.278 34.768C198.278 36.752 197.382 38.544 195.974 39.792L199.238 45.264H192.102ZM188.294 33.424V36.112H190.182C190.95 36.112 191.526 35.504 191.526 34.768C191.526 34 190.95 33.424 190.182 33.424H188.294ZM214.919 28.112V45.264H208.199V28.112H214.919ZM240.014 33.424H230.99V34.224H235.054C238.094 34.224 240.59 36.688 240.59 39.728C240.59 42.8 238.094 45.264 235.054 45.264H224.27V39.952H233.454V39.152H229.422C226.35 39.152 223.886 36.688 223.886 33.616C223.886 30.576 226.35 28.112 229.422 28.112H240.014V33.424ZM262.151 36.528L267.239 45.264H259.943L256.263 38.96V45.264H249.543V28.112H256.263V34.064L259.751 28.112H267.047L262.151 36.528Z" fill="#F41127"/>
</g>
<defs>
<filter id="filter0_d_66_179" x="0" y="0" width="288" height="79" filterUnits="userSpaceOnUse" color-interpolation-filters="sRGB">
<feFlood flood-opacity="0" result="BackgroundImageFix"/>
<feColorMatrix in="SourceAlpha" type="matrix" values="0 0 0 0 0 0 0 0 0 0 0 0 0 0 0 0 0 0 127 0" result="hardAlpha"/>
<feOffset dy="4"/>
<feGaussianBlur stdDeviation="2"/>
<feComposite in2="hardAlpha" operator="out"/>
<feColorMatrix type="matrix" values="0 0 0 0 0 0 0 0 0 0 0 0 0 0 0 0 0 0 0.25 0"/>
<feBlend mode="normal" in2="BackgroundImageFix" result="effect1_dropShadow_66_179"/>
<feBlend mode="normal" in="SourceGraphic" in2="effect1_dropShadow_66_179" result="shape"/>
</filter>
<filter id="filter1_d_66_179" x="24.48" y="27.728" width="246.759" height="25.92" filterUnits="userSpaceOnUse" color-interpolation-filters="sRGB">
<feFlood flood-opacity="0" result="BackgroundImageFix"/>
<feColorMatrix in="SourceAlpha" type="matrix" values="0 0 0 0 0 0 0 0 0 0 0 0 0 0 0 0 0 0 127 0" result="hardAlpha"/>
<feOffset dy="4"/>
<feGaussianBlur stdDeviation="2"/>
<feComposite in2="hardAlpha" operator="out"/>
<feColorMatrix type="matrix" values="0 0 0 0 0 0 0 0 0 0 0 0 0 0 0 0 0 0 0.25 0"/>
<feBlend mode="normal" in2="BackgroundImageFix" result="effect1_dropShadow_66_179"/>
<feBlend mode="normal" in="SourceGraphic" in2="effect1_dropShadow_66_179" result="shape"/>
</filter>
</defs>
</svg>
