<svg width="288" height="73" viewBox="0 0 288 73" fill="none" xmlns="http://www.w3.org/2000/svg">
<g filter="url(#filter0_d_66_183)">
<rect x="4" width="280" height="64.2943" rx="20" fill="#FEF9F3" fill-opacity="0.59" shape-rendering="crispEdges"/>
<rect x="7" y="3" width="274" height="58.2943" rx="17" stroke="#F37112" stroke-width="6" shape-rendering="crispEdges"/>
</g>
<g filter="url(#filter1_d_66_183)">
<path d="M41.6603 42.803C40.3803 42.8045 40.4756 42.1964 37.6596 42.1998L28.2517 42.3073L28.0917 42.3075C26.3317 42.3097 24.3475 42.1841 24.3457 40.6481C24.3448 39.8801 24.6963 39.4637 25.3038 39.0469C26.1351 38.4699 26.3584 37.8936 26.3561 36.0056L26.3442 26.0216C26.3419 24.1336 26.1172 23.5579 25.2845 22.9829C24.676 22.5677 24.3235 22.1521 24.3226 21.3841C24.3207 19.8481 26.3046 19.7177 28.0646 19.7155L28.2246 19.7153L36.9287 19.8007C39.4247 19.7977 39.648 19.1894 40.992 19.1878C42.304 19.1862 42.8807 19.7935 43.6518 22.4165C44.8088 26.5431 43.9781 27.6321 42.6021 27.6338C41.4821 27.6352 40.9052 26.8999 40.4243 26.1325C39.0132 23.5102 38.6608 23.1906 36.4848 23.1933L34.5008 23.1957C33.8927 23.1644 33.637 23.3887 33.6377 23.9647L33.6426 28.0287C33.6113 28.6368 33.8356 28.8925 34.4116 28.8918L34.9236 28.8912C35.5956 28.8904 35.8513 28.634 35.8182 27.7381C35.881 26.682 36.1363 26.1057 37.2243 26.1044C38.4403 26.1029 38.7931 26.8384 39.5007 29.8456C40.2408 33.2047 40.0821 34.3249 38.4501 34.3269C37.4581 34.3281 36.9776 33.8807 36.7205 32.953C36.5277 32.3132 36.3674 32.0574 35.5034 32.0585L34.5114 32.0597C33.9034 32.0284 33.6476 32.2527 33.6483 32.8287L33.6545 37.9487C33.6232 38.5568 33.8475 38.8125 34.4235 38.8118L37.5595 38.808C39.4795 38.8056 40.15 37.5888 40.884 35.8919C41.4267 34.7712 42.1622 34.3543 42.9302 34.3534C44.8822 34.351 45.0127 36.4629 44.1204 39.568C43.3556 42.1929 42.7163 42.8017 41.6603 42.803ZM65.0365 42.5504C60.2685 42.5562 55.5303 40.738 55.5252 36.482C55.5231 34.754 56.4817 33.5689 58.1137 33.5669C59.3937 33.5653 60.6103 34.0438 61.5731 36.3466C62.151 37.9779 63.0802 38.9688 65.2242 38.9662C66.9202 38.9641 67.7194 38.2591 67.7181 37.1711C67.7138 33.6191 56.3866 34.305 56.377 26.273C56.3723 22.369 59.4727 19.3892 64.8167 19.3827C69.5527 19.3769 74.0033 21.5155 74.0075 25.0035C74.0092 26.4115 73.1466 27.6285 71.5146 27.6305C70.4586 27.6318 69.466 27.121 68.5678 25.2661C67.8939 23.6669 66.8371 22.9962 65.5571 22.9978C64.4051 22.9992 63.6057 23.5762 63.6068 24.4722C63.6113 28.2162 74.9065 27.5624 74.916 35.4344C74.9216 40.1384 70.6365 42.5436 65.0365 42.5504ZM98.3175 42.5098C91.0215 42.5187 86.0561 38.0768 86.0476 30.9728C86.0394 24.1248 90.9297 19.3508 98.4177 19.3417C105.714 19.3327 110.679 23.7747 110.688 30.8467C110.696 37.7267 105.837 42.5006 98.3175 42.5098ZM99.5609 38.6683C101.161 38.6663 102.631 37.4165 102.627 34.1205C102.622 29.7045 100.47 23.1791 97.1743 23.1832C95.5743 23.1851 94.1358 24.4029 94.1397 27.6669C94.145 32.1149 96.2649 38.6723 99.5609 38.6683Z" fill="#2119D6"/>
<path d="M129.241 42.44C125.657 42.4444 123.32 40.9433 123.315 36.8473L123.307 30.1593C123.306 29.6793 123.146 29.2955 122.57 29.2962L122.186 29.2966C121.482 29.2975 121.129 28.7539 121.128 28.0179C121.127 27.4099 121.382 26.6096 121.926 25.873C123.331 24.0152 124.067 23.3423 125.377 22.4127C126.433 21.6755 127.648 21.226 128.736 21.2246C130.048 21.223 130.145 21.8309 130.146 22.7269L130.148 24.1989C130.15 25.9269 130.246 26.0548 130.95 26.0539L134.15 26.05C134.886 26.0491 135.27 26.2087 135.271 27.2007C135.273 28.4487 134.57 29.2495 133.674 29.2506L131.146 29.2537C130.634 29.2543 130.186 29.5429 130.187 30.1829L130.193 35.6869C130.195 36.9349 130.836 37.7341 131.892 37.7328C132.372 37.7322 133.172 37.5712 133.811 37.0585C134.674 36.5134 135.699 36.9282 135.54 38.0163C135.095 40.8009 132.633 42.4359 129.241 42.44ZM155.553 42.4399C150.081 42.4466 146.62 38.5468 146.615 34.0668C146.609 28.9788 150.701 25.6778 155.661 25.6718C161.069 25.6652 163.441 29.1823 163.444 31.5823C163.446 33.3423 162.615 34.1113 160.823 34.3375L154.808 35.1128C154.328 35.1774 154.232 35.4015 154.233 35.6895C154.234 36.4575 155.195 37.9603 157.435 37.9576C159.003 37.9557 160.442 37.1539 161.05 36.5772C161.401 36.2888 161.753 36.1283 162.041 36.128C162.905 36.1269 163.258 36.9265 163.195 37.6306C162.909 39.6789 160.481 42.4339 155.553 42.4399ZM156.309 32.583C156.917 32.4862 157.14 32.134 157.14 31.494C157.138 30.598 156.464 28.9028 155.28 28.9042C154.288 28.9054 153.649 29.7062 153.652 31.6582C153.653 32.7782 153.813 33.002 154.517 32.8732L156.309 32.583ZM183.041 36.8704C183.042 37.7344 183.139 38.5342 184.068 39.2051C184.548 39.5885 184.836 39.9402 184.837 40.5802C184.839 41.8602 184.135 42.213 180.807 42.2491L178.407 42.252C175.143 42.224 174.343 41.873 174.341 40.593C174.34 39.953 174.596 39.6007 175.108 39.216C176.035 38.5749 176.13 37.7108 176.129 36.9108L176.123 31.6628C176.122 30.9268 175.961 30.351 175.32 29.9038C174.84 29.6164 174.296 29.393 174.295 28.657C174.294 27.825 174.869 27.3443 175.765 26.8952C177.076 26.3176 178.932 25.8034 180.788 25.8011C181.94 25.7997 182.644 26.1188 182.645 27.4308L182.583 28.3269C182.583 28.5829 182.615 28.9669 182.775 28.9667C183.127 28.9662 184.115 25.573 187.283 25.5692C189.171 25.5669 190.837 26.8768 190.84 29.8208C190.843 31.9328 189.629 33.7583 187.741 33.7606C186.333 33.7623 185.084 32.8999 185.082 31.3639C185.082 31.0119 184.985 30.596 184.505 30.5966C183.673 30.5976 183.035 32.4224 183.038 34.3104L183.041 36.8704ZM203.25 31.6297C203.249 30.8937 203.056 30.3179 202.416 29.8707C201.903 29.5833 201.327 29.36 201.326 28.624C201.293 27.7921 201.901 27.3113 202.86 26.8621C204.235 26.2845 206.219 25.77 208.171 25.7677C209.387 25.7662 210.155 26.0852 210.157 27.3972L210.136 36.8373C210.137 37.7013 210.234 38.5012 211.163 39.172C211.643 39.5554 211.932 39.9071 211.932 40.5471C211.934 41.8271 211.23 42.1799 207.934 42.216L205.502 42.2189C202.238 42.1909 201.47 41.8399 201.468 40.5599C201.468 39.9199 201.723 39.5675 202.235 39.1829C203.13 38.5418 203.225 37.6777 203.224 36.8777L203.25 31.6297ZM205.481 24.5229C203.305 24.5256 202.024 23.6952 202.023 22.2872C202.02 20.3352 204.259 18.9564 207.299 18.9527C209.347 18.9502 210.628 19.8767 210.629 21.1887C210.632 23.2687 208.457 24.5193 205.481 24.5229ZM230.91 42.3479C227.518 42.3521 223.037 41.4295 223.032 38.0375C223.031 36.8215 223.894 35.9565 225.11 35.955C226.198 35.9537 227.191 36.4645 227.896 37.5836C228.473 38.4469 229.338 39.2778 230.842 39.276C232.026 39.2746 232.569 38.8579 232.569 38.2819C232.566 36.2019 223.48 37.525 223.472 30.997C223.468 27.253 226.761 25.521 230.857 25.516C234.217 25.5119 238.315 26.6909 238.318 29.6989C238.32 30.6909 237.649 31.6837 236.369 31.6852C235.313 31.6865 234.448 31.2716 233.775 30.2804C233.07 29.3533 232.397 28.6501 231.309 28.6514C230.381 28.6526 229.902 29.0691 229.902 29.6131C229.905 31.9491 238.992 30.594 238.999 36.898C239.004 40.642 235.838 42.3419 230.91 42.3479ZM252.817 42.0652C250.769 42.0677 249.84 41.6208 249.839 40.5008C249.838 39.7968 250.158 39.4444 250.541 39.0919C251.5 38.4508 251.723 37.3625 251.721 35.2505L251.709 25.4905C251.708 24.5945 251.515 23.7627 250.971 23.5394C250.33 23.2522 249.818 22.9328 249.817 22.1968C249.816 21.2688 250.455 20.852 251.287 20.467C252.726 19.7933 254.87 19.3426 256.662 19.3405C257.878 19.339 258.646 19.69 258.648 20.97L258.659 30.602C258.66 31.402 258.852 31.7538 259.524 31.209L260.898 30.0233C261.57 29.4465 261.601 28.7424 261.12 28.295C260.832 28.0394 260.512 27.7198 260.511 27.1438C260.509 25.8958 261.757 25.7662 263.101 25.7646L267.421 25.7593C268.605 25.7579 269.566 26.0127 269.567 27.1967C269.568 28.1247 269.057 28.5093 268.225 28.7024C267.393 28.8314 266.753 29.1201 266.21 29.6008L265.347 30.3059C264.899 30.6904 264.804 31.0425 265.124 31.5861L268.491 37.246C269.036 38.1094 269.356 38.365 269.869 38.6524C270.445 39.0036 270.926 39.5471 270.927 40.3151C270.928 41.3711 269.873 42.0443 268.433 42.0461L265.009 42.0503C262.257 42.0536 261.744 41.2863 261.743 40.3903C261.742 40.0703 262.03 39.8779 262.03 39.5899C262.029 39.1419 261.933 38.63 261.772 38.2782L260.265 35.4641C259.944 34.8245 259.688 34.7928 259.304 35.1132L258.985 35.3376C258.697 35.562 258.665 35.914 258.666 36.522L258.667 36.842C258.668 37.674 258.828 38.4098 259.693 38.9848C260.142 39.3682 260.43 39.7519 260.431 40.3919C260.432 41.3839 259.825 42.0566 257.425 42.0595L252.817 42.0652Z" fill="#F37112"/>
</g>
<defs>
<filter id="filter0_d_66_183" x="0" y="0" width="288" height="72.2944" filterUnits="userSpaceOnUse" color-interpolation-filters="sRGB">
<feFlood flood-opacity="0" result="BackgroundImageFix"/>
<feColorMatrix in="SourceAlpha" type="matrix" values="0 0 0 0 0 0 0 0 0 0 0 0 0 0 0 0 0 0 127 0" result="hardAlpha"/>
<feOffset dy="4"/>
<feGaussianBlur stdDeviation="2"/>
<feComposite in2="hardAlpha" operator="out"/>
<feColorMatrix type="matrix" values="0 0 0 0 0 0 0 0 0 0 0 0 0 0 0 0 0 0 0.25 0"/>
<feBlend mode="normal" in2="BackgroundImageFix" result="effect1_dropShadow_66_183"/>
<feBlend mode="normal" in="SourceGraphic" in2="effect1_dropShadow_66_183" result="shape"/>
</filter>
<filter id="filter1_d_66_183" x="20.3199" y="18.8751" width="254.609" height="31.949" filterUnits="userSpaceOnUse" color-interpolation-filters="sRGB">
<feFlood flood-opacity="0" result="BackgroundImageFix"/>
<feColorMatrix in="SourceAlpha" type="matrix" values="0 0 0 0 0 0 0 0 0 0 0 0 0 0 0 0 0 0 127 0" result="hardAlpha"/>
<feOffset dy="4"/>
<feGaussianBlur stdDeviation="2"/>
<feComposite in2="hardAlpha" operator="out"/>
<feColorMatrix type="matrix" values="0 0 0 0 0 0 0 0 0 0 0 0 0 0 0 0 0 0 0.25 0"/>
<feBlend mode="normal" in2="BackgroundImageFix" result="effect1_dropShadow_66_183"/>
<feBlend mode="normal" in="SourceGraphic" in2="effect1_dropShadow_66_183" result="shape"/>
</filter>
</defs>
</svg>
