<svg xmlns="http://www.w3.org/2000/svg" viewBox="0 0 150 64" role="img" aria-label="Exit">
  <!-- hvid baggrund -->
  <path d="M7 18C7 9.71573 13.7157 3 22 3H119C127.284 3 134 9.71573 134 18V38C134 46.2843 127.284 53 119 53H22C13.7157 53 7 46.2843 7 38V18Z" fill="#ffffff" fill-opacity="0.9"></path>
  <!-- grøn kant -->
  <path d="M119 1.5C128.113 1.5 135.5 8.8873 135.5 18V38C135.5 47.1127 128.113 54.5 119 54.5H22C12.8873 54.5 5.5 47.1127 5.5 38V18C5.5 8.8873 12.8873 1.5 22 1.5H119Z" fill="none" stroke="#46B138" stroke-width="3" vector-effect="non-scaling-stroke"></path>
  <!-- grøn cirkel -->
  <ellipse cx="32.0001" cy="27.5" rx="22" ry="21.5" fill="#46B138"></ellipse>
  <!-- hvid pil -->
  <path d="M19.0146 25.9393C18.4289 26.5251 18.4289 27.4749 19.0146 28.0607L28.5606 37.6066C29.1464 38.1924 30.0961 38.1924 30.6819 37.6066C31.2677 37.0208 31.2677 36.0711 30.6819 35.4853L22.1966 27L30.6819 18.5147C31.2677 17.9289 31.2677 16.9792 30.6819 16.3934C30.0961 15.8076 29.1464 15.8076 28.5606 16.3934L19.0146 25.9393ZM47.0753 27V25.5L20.0753 25.5V27V28.5L47.0753 28.5V27Z" fill="#ffffff" fill-opacity="0.9"></path>
  <!-- EXIT tekst i grøn -->
  <path d="M64.875 35V20H79.6016V21.5625H66.75V26.5625H79.0645V28.125H66.75V33.4375H79.875V35H64.875ZM81.125 35L89.6504 27.0898L81.75 20H84.4062L90.9492 25.8789L97.2871 20H99.9434L92.3066 27.0898L101.125 35H98.4688L90.998 28.3008L83.7812 35H81.125ZM103.625 35V20H105.5V35H103.625ZM115.793 35V21.5625H108.293V20H125.168V21.5625H117.668V35H115.793Z" fill="#46B138"></path>
</svg>
