<svg width="128" height="179" viewBox="0 0 128 179" fill="none" xmlns="http://www.w3.org/2000/svg">
<circle cx="64" cy="98" r="64" fill="#FB4CBF"/>
<path d="M33.25 121.125C32.5 119.958 32.6667 118.625 33.75 117.125C34.8333 115.625 36.4167 114.042 38.5 112.375C40.5833 110.625 42.9167 108.833 45.5 107C48.1667 105.167 50.625 103.333 52.875 101.5C55.125 99.6667 56.9583 97.9167 58.375 96.25C59.7917 94.5 60.3333 92.9167 60 91.5C59.9167 91.1667 59.6667 90.25 59.25 88.75C58.8333 87.1667 58.375 85.5 57.875 83.75C57.375 82 56.9167 80.375 56.5 78.875C56.0833 77.375 55.8333 76.4167 55.75 76V73.125C56.8333 72.2917 57.875 72.5417 58.875 73.875C59.9583 75.2083 60.9583 76.9167 61.875 79C62.875 81 63.7917 83 64.625 85C65.5417 87 66.3333 88.25 67 88.75C68.5 87.75 70.0833 86.5833 71.75 85.25C73.5 83.8333 75.2083 82.4167 76.875 81C78.5417 79.5 80.125 78.0833 81.625 76.75C83.125 75.3333 84.375 74.125 85.375 73.125C87.125 72.2083 88.3333 71.8333 89 72C89.75 72.0833 90.125 72.5 90.125 73.25C90.125 74 89.875 74.9167 89.375 76C88.9583 77.0833 88.4583 78.1667 87.875 79.25C87.2917 80.25 86.7083 81.125 86.125 81.875C85.625 82.625 85.375 83 85.375 83C80.9583 87 77.5833 90.4167 75.25 93.25C72.9167 96 71.2917 98.3333 70.375 100.25C69.5417 102.167 69.25 103.708 69.5 104.875C69.75 106.042 70.2917 107.042 71.125 107.875C72.0417 108.625 73.0833 109.292 74.25 109.875C75.4167 110.458 76.4167 111.125 77.25 111.875C78.1667 112.542 78.75 113.375 79 114.375C79.3333 115.375 79.0833 116.708 78.25 118.375C76 118.958 74.25 118.875 73 118.125C71.75 117.292 70.7083 116.167 69.875 114.75C69.0417 113.333 68.3333 111.792 67.75 110.125C67.25 108.458 66.5833 107.042 65.75 105.875C65 104.625 63.9583 103.833 62.625 103.5C61.375 103.083 59.625 103.458 57.375 104.625C55.125 105.792 52.25 107.917 48.75 111C45.3333 114 41.0833 118.333 36 124C35.75 123.833 35.25 123.375 34.5 122.625C33.8333 121.875 33.4167 121.375 33.25 121.125Z" fill="#9AFF68"/>
</svg>
