<svg width="128" height="105" viewBox="0 0 128 105" fill="none" xmlns="http://www.w3.org/2000/svg">
<g filter="url(#filter0_i_162_2088)">
<path d="M1.5 77L22.5 41H28.5L49.5 77H44.25L39.75 68.75H11.25L6.75 77H1.5ZM13.5 65H37.5L25.5 44L13.5 65Z" fill="black"/>
</g>
<path d="M21.008 102.048C20.688 102.048 20.464 101.824 20.336 101.376C20.208 100.928 20.208 100.48 20.336 100.032C20.848 98.816 21.68 97.344 22.832 95.616C23.92 93.888 25.168 92.192 26.576 90.528C28.816 87.84 31.28 85.152 33.968 82.464C36.656 79.776 39.312 77.184 41.936 74.688C44.56 72.192 46.864 69.984 48.848 68.064C47.952 66.528 46.928 64.608 45.776 62.304C44.624 59.936 43.44 57.472 42.224 54.912C41.072 52.288 39.952 49.824 38.864 47.52C37.776 45.152 36.848 43.2 36.08 41.664C35.76 41.088 35.472 40.64 35.216 40.32C34.96 39.936 34.64 39.744 34.256 39.744C33.744 39.744 33.488 39.552 33.488 39.168C33.488 38.784 33.712 38.432 34.16 38.112C35.44 37.28 36.592 36.864 37.616 36.864C38.128 36.864 38.608 37.024 39.056 37.344C39.568 37.6 39.984 38.08 40.304 38.784C40.56 39.424 41.072 40.64 41.84 42.432C42.672 44.224 43.6 46.304 44.624 48.672C45.712 50.976 46.8 53.28 47.888 55.584C48.976 57.888 49.936 59.936 50.768 61.728C51.6 63.456 52.208 64.576 52.592 65.088C54 63.872 55.824 62.208 58.064 60.096C60.368 57.984 62.8 55.584 65.36 52.896C67.984 50.144 70.448 47.328 72.752 44.448C75.184 41.504 77.04 39.136 78.32 37.344C79.664 35.488 80.72 34.56 81.488 34.56C81.68 34.56 81.84 34.688 81.968 34.944C82.096 35.136 82.16 35.36 82.16 35.616C82.16 36.768 81.712 38.112 80.816 39.648C79.984 41.12 78.992 42.56 77.84 43.968C76.688 45.312 75.728 46.4 74.96 47.232C73.808 48.576 72.208 50.24 70.16 52.224C68.112 54.208 65.936 56.256 63.632 58.368C61.392 60.48 59.376 62.4 57.584 64.128C55.792 65.792 54.544 66.976 53.84 67.68C55.12 69.856 56.432 72.16 57.776 74.592C59.12 77.024 60.4 79.328 61.616 81.504C62.896 83.616 64.016 85.312 64.976 86.592C67.28 89.664 68.944 91.584 69.968 92.352C70.992 93.12 71.664 93.472 71.984 93.408H72.368C72.752 93.408 72.944 93.6 72.944 93.984C72.944 94.368 72.848 94.624 72.656 94.752C72.208 95.072 71.824 95.392 71.504 95.712C71.184 96.032 70.928 96.256 70.736 96.384C70.352 96.64 70 96.864 69.68 97.056C69.36 97.248 68.944 97.344 68.432 97.344C67.6 97.344 66.672 96.8 65.648 95.712C64.624 94.624 63.568 93.248 62.48 91.584C61.392 89.856 60.272 88.096 59.12 86.304C57.2 83.296 55.472 80.416 53.936 77.664C52.464 74.848 51.248 72.544 50.288 70.752C49.392 71.52 48.048 72.768 46.256 74.496C44.464 76.224 42.448 78.208 40.208 80.448C37.968 82.688 35.696 85.056 33.392 87.552C31.088 89.984 28.944 92.384 26.96 94.752C25.04 97.056 23.504 99.104 22.352 100.896C21.904 101.664 21.456 102.048 21.008 102.048Z" fill="#46B138"/>
<g filter="url(#filter1_i_162_2088)">
<path d="M66.5938 77V41H71.0938V56.75H104.094V41H108.594V77H104.094V60.5H71.0938V77H66.5938Z" fill="#1E1E1E"/>
</g>
<path d="M89.92 91.52C89.7867 91.52 89.6933 91.4267 89.64 91.24C89.5867 91.0533 89.5867 90.8667 89.64 90.68C89.8533 90.1733 90.2 89.56 90.68 88.84C91.1333 88.12 91.6533 87.4133 92.24 86.72C93.1733 85.6 94.2 84.48 95.32 83.36C96.44 82.24 97.5467 81.16 98.64 80.12C99.7333 79.08 100.693 78.16 101.52 77.36C101.147 76.72 100.72 75.92 100.24 74.96C99.76 73.9733 99.2667 72.9467 98.76 71.88C98.28 70.7867 97.8133 69.76 97.36 68.8C96.9067 67.8133 96.52 67 96.2 66.36C96.0667 66.12 95.9467 65.9333 95.84 65.8C95.7333 65.64 95.6 65.56 95.44 65.56C95.2267 65.56 95.12 65.48 95.12 65.32C95.12 65.16 95.2133 65.0133 95.4 64.88C95.9333 64.5333 96.4133 64.36 96.84 64.36C97.0533 64.36 97.2533 64.4267 97.44 64.56C97.6533 64.6667 97.8267 64.8667 97.96 65.16C98.0667 65.4267 98.28 65.9333 98.6 66.68C98.9467 67.4267 99.3333 68.2933 99.76 69.28C100.213 70.24 100.667 71.2 101.12 72.16C101.573 73.12 101.973 73.9733 102.32 74.72C102.667 75.44 102.92 75.9067 103.08 76.12C103.667 75.6133 104.427 74.92 105.36 74.04C106.32 73.16 107.333 72.16 108.4 71.04C109.493 69.8933 110.52 68.72 111.48 67.52C112.493 66.2933 113.267 65.3067 113.8 64.56C114.36 63.7867 114.8 63.4 115.12 63.4C115.2 63.4 115.267 63.4533 115.32 63.56C115.373 63.64 115.4 63.7333 115.4 63.84C115.4 64.32 115.213 64.88 114.84 65.52C114.493 66.1333 114.08 66.7333 113.6 67.32C113.12 67.88 112.72 68.3333 112.4 68.68C111.92 69.24 111.253 69.9333 110.4 70.76C109.547 71.5867 108.64 72.44 107.68 73.32C106.747 74.2 105.907 75 105.16 75.72C104.413 76.4133 103.893 76.9067 103.6 77.2C104.133 78.1067 104.68 79.0667 105.24 80.08C105.8 81.0933 106.333 82.0533 106.84 82.96C107.373 83.84 107.84 84.5467 108.24 85.08C109.2 86.36 109.893 87.16 110.32 87.48C110.747 87.8 111.027 87.9467 111.16 87.92H111.32C111.48 87.92 111.56 88 111.56 88.16C111.56 88.32 111.52 88.4267 111.44 88.48C111.253 88.6133 111.093 88.7467 110.96 88.88C110.827 89.0133 110.72 89.1067 110.64 89.16C110.48 89.2667 110.333 89.36 110.2 89.44C110.067 89.52 109.893 89.56 109.68 89.56C109.333 89.56 108.947 89.3333 108.52 88.88C108.093 88.4267 107.653 87.8533 107.2 87.16C106.747 86.44 106.28 85.7067 105.8 84.96C105 83.7067 104.28 82.5067 103.64 81.36C103.027 80.1867 102.52 79.2267 102.12 78.48C101.747 78.8 101.187 79.32 100.44 80.04C99.6933 80.76 98.8533 81.5867 97.92 82.52C96.9867 83.4533 96.04 84.44 95.08 85.48C94.12 86.4933 93.2267 87.4933 92.4 88.48C91.6 89.44 90.96 90.2933 90.48 91.04C90.2933 91.36 90.1067 91.52 89.92 91.52Z" fill="#FB4CBF"/>
<defs>
<filter id="filter0_i_162_2088" x="1.5" y="41" width="48" height="40" filterUnits="userSpaceOnUse" color-interpolation-filters="sRGB">
<feFlood flood-opacity="0" result="BackgroundImageFix"/>
<feBlend mode="normal" in="SourceGraphic" in2="BackgroundImageFix" result="shape"/>
<feColorMatrix in="SourceAlpha" type="matrix" values="0 0 0 0 0 0 0 0 0 0 0 0 0 0 0 0 0 0 127 0" result="hardAlpha"/>
<feOffset dy="4"/>
<feGaussianBlur stdDeviation="2"/>
<feComposite in2="hardAlpha" operator="arithmetic" k2="-1" k3="1"/>
<feColorMatrix type="matrix" values="0 0 0 0 0 0 0 0 0 0 0 0 0 0 0 0 0 0 0.25 0"/>
<feBlend mode="normal" in2="shape" result="effect1_innerShadow_162_2088"/>
</filter>
<filter id="filter1_i_162_2088" x="66.5938" y="41" width="42" height="40" filterUnits="userSpaceOnUse" color-interpolation-filters="sRGB">
<feFlood flood-opacity="0" result="BackgroundImageFix"/>
<feBlend mode="normal" in="SourceGraphic" in2="BackgroundImageFix" result="shape"/>
<feColorMatrix in="SourceAlpha" type="matrix" values="0 0 0 0 0 0 0 0 0 0 0 0 0 0 0 0 0 0 127 0" result="hardAlpha"/>
<feOffset dy="4"/>
<feGaussianBlur stdDeviation="2"/>
<feComposite in2="hardAlpha" operator="arithmetic" k2="-1" k3="1"/>
<feColorMatrix type="matrix" values="0 0 0 0 0 0 0 0 0 0 0 0 0 0 0 0 0 0 0.25 0"/>
<feBlend mode="normal" in2="shape" result="effect1_innerShadow_162_2088"/>
</filter>
</defs>
</svg>
