<svg width="216" height="129" viewBox="0 0 216 129" fill="none" xmlns="http://www.w3.org/2000/svg">
<g filter="url(#filter0_d_96_108)">
<ellipse cx="108" cy="61.5682" rx="99" ry="36.9409" fill="#F8A5DA"/>
<path d="M108 22.1273C135.557 22.1273 160.617 26.291 178.878 33.1048C187.999 36.5082 195.554 40.6213 200.874 45.3148C206.19 50.0049 209.5 55.4908 209.5 61.5677C209.5 67.6448 206.19 73.1314 200.874 77.8216C195.554 82.5151 187.999 86.6282 178.878 90.0316C160.617 96.8454 135.557 101.009 108 101.009C80.4427 101.009 55.3828 96.8454 37.1221 90.0316C28.0013 86.6282 20.4461 82.5151 15.126 77.8216C9.80957 73.1314 6.5 67.6448 6.5 61.5677C6.50017 55.4908 9.80971 50.0049 15.126 45.3148C20.4461 40.6213 28.0013 36.5082 37.1221 33.1048C55.3828 26.291 80.4427 22.1273 108 22.1273Z" stroke="#FE5AC8" stroke-width="5"/>
</g>
<g filter="url(#filter1_i_96_108)">
<path d="M68.2224 72.6818H74.0406V78.5H68.2224V72.6818ZM68.2224 66.8636H74.0406V72.6818H68.2224V66.8636ZM68.2224 61.0455H74.0406V66.8636H68.2224V61.0455ZM68.2224 55.2273H74.0406V61.0455H68.2224V55.2273ZM74.0406 49.4091H79.8588V55.2273H74.0406V49.4091ZM79.8588 55.2273H85.677V61.0455H79.8588V55.2273ZM79.8588 61.0455H85.677V66.8636H79.8588V61.0455ZM79.8588 66.8636H85.677V72.6818H79.8588V66.8636ZM79.8588 72.6818H85.677V78.5H79.8588V72.6818ZM74.0406 61.0455H79.8588V66.8636H74.0406V61.0455ZM91.4724 49.4091H97.2906V55.2273H91.4724V49.4091ZM91.4724 55.2273H97.2906V61.0455H91.4724V55.2273ZM103.109 49.4091H108.927V55.2273H103.109V49.4091ZM103.109 55.2273H108.927V61.0455H103.109V55.2273ZM97.2906 61.0455H103.109V66.8636H97.2906V61.0455ZM91.4724 66.8636H97.2906V72.6818H91.4724V66.8636ZM91.4724 72.6818H97.2906V78.5H91.4724V72.6818ZM103.109 66.8636H108.927V72.6818H103.109V66.8636ZM103.109 72.6818H108.927V78.5H103.109V72.6818ZM114.722 72.6818H120.541V78.5H114.722V72.6818ZM114.722 66.8636H120.541V72.6818H114.722V66.8636ZM114.722 61.0455H120.541V66.8636H114.722V61.0455ZM114.722 55.2273H120.541V61.0455H114.722V55.2273ZM114.722 49.4091H120.541V55.2273H114.722V49.4091ZM120.541 61.0455H126.359V66.8636H120.541V61.0455ZM126.359 49.4091H132.177V55.2273H126.359V49.4091ZM126.359 55.2273H132.177V61.0455H126.359V55.2273ZM126.359 61.0455H132.177V66.8636H126.359V61.0455ZM126.359 66.8636H132.177V72.6818H126.359V66.8636ZM126.359 72.6818H132.177V78.5H126.359V72.6818ZM137.972 49.4091H143.791V55.2273H137.972V49.4091ZM137.972 55.2273H143.791V61.0455H137.972V55.2273ZM149.609 49.4091H155.427V55.2273H149.609V49.4091ZM149.609 55.2273H155.427V61.0455H149.609V55.2273ZM143.791 61.0455H149.609V66.8636H143.791V61.0455ZM137.972 66.8636H143.791V72.6818H137.972V66.8636ZM137.972 72.6818H143.791V78.5H137.972V72.6818ZM149.609 66.8636H155.427V72.6818H149.609V66.8636ZM149.609 72.6818H155.427V78.5H149.609V72.6818Z" fill="#FE5AC8"/>
</g>
<defs>
<filter id="filter0_d_96_108" x="0" y="19.6273" width="216" height="91.8818" filterUnits="userSpaceOnUse" color-interpolation-filters="sRGB">
<feFlood flood-opacity="0" result="BackgroundImageFix"/>
<feColorMatrix in="SourceAlpha" type="matrix" values="0 0 0 0 0 0 0 0 0 0 0 0 0 0 0 0 0 0 127 0" result="hardAlpha"/>
<feOffset dy="4"/>
<feGaussianBlur stdDeviation="2"/>
<feComposite in2="hardAlpha" operator="out"/>
<feColorMatrix type="matrix" values="0 0 0 0 0 0 0 0 0 0 0 0 0 0 0 0 0 0 0.25 0"/>
<feBlend mode="normal" in2="BackgroundImageFix" result="effect1_dropShadow_96_108"/>
<feBlend mode="normal" in="SourceGraphic" in2="effect1_dropShadow_96_108" result="shape"/>
</filter>
<filter id="filter1_i_96_108" x="68.2224" y="49.4091" width="87.2046" height="33.0909" filterUnits="userSpaceOnUse" color-interpolation-filters="sRGB">
<feFlood flood-opacity="0" result="BackgroundImageFix"/>
<feBlend mode="normal" in="SourceGraphic" in2="BackgroundImageFix" result="shape"/>
<feColorMatrix in="SourceAlpha" type="matrix" values="0 0 0 0 0 0 0 0 0 0 0 0 0 0 0 0 0 0 127 0" result="hardAlpha"/>
<feOffset dy="4"/>
<feGaussianBlur stdDeviation="2"/>
<feComposite in2="hardAlpha" operator="arithmetic" k2="-1" k3="1"/>
<feColorMatrix type="matrix" values="0 0 0 0 0 0 0 0 0 0 0 0 0 0 0 0 0 0 0.25 0"/>
<feBlend mode="normal" in2="shape" result="effect1_innerShadow_96_108"/>
</filter>
</defs>
</svg>
